%TF.GenerationSoftware,KiCad,Pcbnew,7.0.6*%
%TF.CreationDate,2024-03-18T09:35:31+01:00*%
%TF.ProjectId,PymonPCB,50796d6f-6e50-4434-922e-6b696361645f,rev?*%
%TF.SameCoordinates,Original*%
%TF.FileFunction,Copper,L1,Top*%
%TF.FilePolarity,Positive*%
%FSLAX46Y46*%
G04 Gerber Fmt 4.6, Leading zero omitted, Abs format (unit mm)*
G04 Created by KiCad (PCBNEW 7.0.6) date 2024-03-18 09:35:31*
%MOMM*%
%LPD*%
G01*
G04 APERTURE LIST*
%ADD10C,0.150000*%
%TA.AperFunction,NonConductor*%
%ADD11C,0.150000*%
%TD*%
%TA.AperFunction,ComponentPad*%
%ADD12R,1.700000X1.700000*%
%TD*%
%TA.AperFunction,ComponentPad*%
%ADD13O,1.700000X1.700000*%
%TD*%
%TA.AperFunction,ComponentPad*%
%ADD14R,1.800000X1.800000*%
%TD*%
%TA.AperFunction,ComponentPad*%
%ADD15C,1.800000*%
%TD*%
%TA.AperFunction,ComponentPad*%
%ADD16R,1.600000X1.600000*%
%TD*%
%TA.AperFunction,ComponentPad*%
%ADD17C,1.600000*%
%TD*%
G04 APERTURE END LIST*
D10*
D11*
X130117255Y-121049819D02*
X130307731Y-121049819D01*
X130307731Y-121049819D02*
X130402969Y-121097438D01*
X130402969Y-121097438D02*
X130498207Y-121192676D01*
X130498207Y-121192676D02*
X130545826Y-121383152D01*
X130545826Y-121383152D02*
X130545826Y-121716485D01*
X130545826Y-121716485D02*
X130498207Y-121906961D01*
X130498207Y-121906961D02*
X130402969Y-122002200D01*
X130402969Y-122002200D02*
X130307731Y-122049819D01*
X130307731Y-122049819D02*
X130117255Y-122049819D01*
X130117255Y-122049819D02*
X130022017Y-122002200D01*
X130022017Y-122002200D02*
X129926779Y-121906961D01*
X129926779Y-121906961D02*
X129879160Y-121716485D01*
X129879160Y-121716485D02*
X129879160Y-121383152D01*
X129879160Y-121383152D02*
X129926779Y-121192676D01*
X129926779Y-121192676D02*
X130022017Y-121097438D01*
X130022017Y-121097438D02*
X130117255Y-121049819D01*
X130974398Y-121954580D02*
X131022017Y-122002200D01*
X131022017Y-122002200D02*
X130974398Y-122049819D01*
X130974398Y-122049819D02*
X130926779Y-122002200D01*
X130926779Y-122002200D02*
X130974398Y-121954580D01*
X130974398Y-121954580D02*
X130974398Y-122049819D01*
X131307731Y-121049819D02*
X131879159Y-121049819D01*
X131593445Y-122049819D02*
X131593445Y-121049819D01*
X132212493Y-122049819D02*
X132212493Y-121049819D01*
X132212493Y-121526009D02*
X132783921Y-121526009D01*
X132783921Y-122049819D02*
X132783921Y-121049819D01*
X133260112Y-122049819D02*
X133260112Y-121049819D01*
X133926778Y-121049819D02*
X134117254Y-121049819D01*
X134117254Y-121049819D02*
X134212492Y-121097438D01*
X134212492Y-121097438D02*
X134307730Y-121192676D01*
X134307730Y-121192676D02*
X134355349Y-121383152D01*
X134355349Y-121383152D02*
X134355349Y-121716485D01*
X134355349Y-121716485D02*
X134307730Y-121906961D01*
X134307730Y-121906961D02*
X134212492Y-122002200D01*
X134212492Y-122002200D02*
X134117254Y-122049819D01*
X134117254Y-122049819D02*
X133926778Y-122049819D01*
X133926778Y-122049819D02*
X133831540Y-122002200D01*
X133831540Y-122002200D02*
X133736302Y-121906961D01*
X133736302Y-121906961D02*
X133688683Y-121716485D01*
X133688683Y-121716485D02*
X133688683Y-121383152D01*
X133688683Y-121383152D02*
X133736302Y-121192676D01*
X133736302Y-121192676D02*
X133831540Y-121097438D01*
X133831540Y-121097438D02*
X133926778Y-121049819D01*
X134783921Y-122049819D02*
X134783921Y-121049819D01*
X134783921Y-121049819D02*
X135355349Y-122049819D01*
X135355349Y-122049819D02*
X135355349Y-121049819D01*
X136355349Y-121097438D02*
X136260111Y-121049819D01*
X136260111Y-121049819D02*
X136117254Y-121049819D01*
X136117254Y-121049819D02*
X135974397Y-121097438D01*
X135974397Y-121097438D02*
X135879159Y-121192676D01*
X135879159Y-121192676D02*
X135831540Y-121287914D01*
X135831540Y-121287914D02*
X135783921Y-121478390D01*
X135783921Y-121478390D02*
X135783921Y-121621247D01*
X135783921Y-121621247D02*
X135831540Y-121811723D01*
X135831540Y-121811723D02*
X135879159Y-121906961D01*
X135879159Y-121906961D02*
X135974397Y-122002200D01*
X135974397Y-122002200D02*
X136117254Y-122049819D01*
X136117254Y-122049819D02*
X136212492Y-122049819D01*
X136212492Y-122049819D02*
X136355349Y-122002200D01*
X136355349Y-122002200D02*
X136402968Y-121954580D01*
X136402968Y-121954580D02*
X136402968Y-121621247D01*
X136402968Y-121621247D02*
X136212492Y-121621247D01*
X136783921Y-121764104D02*
X137260111Y-121764104D01*
X136688683Y-122049819D02*
X137022016Y-121049819D01*
X137022016Y-121049819D02*
X137355349Y-122049819D01*
X137688683Y-122049819D02*
X137688683Y-121049819D01*
X137688683Y-121049819D02*
X138260111Y-122049819D01*
X138260111Y-122049819D02*
X138260111Y-121049819D01*
X138736302Y-121526009D02*
X139069635Y-121526009D01*
X139212492Y-122049819D02*
X138736302Y-122049819D01*
X138736302Y-122049819D02*
X138736302Y-121049819D01*
X138736302Y-121049819D02*
X139212492Y-121049819D01*
D12*
%TO.P,J2,1,Pin_1*%
%TO.N,unconnected-(J2-Pin_1-Pad1)*%
X142240000Y-86360000D03*
D13*
%TO.P,J2,2,Pin_2*%
%TO.N,GND*%
X142240000Y-88900000D03*
%TO.P,J2,3,Pin_3*%
%TO.N,unconnected-(J2-Pin_3-Pad3)*%
X142240000Y-91440000D03*
%TO.P,J2,4,Pin_4*%
%TO.N,unconnected-(J2-Pin_4-Pad4)*%
X142240000Y-93980000D03*
%TO.P,J2,5,Pin_5*%
%TO.N,unconnected-(J2-Pin_5-Pad5)*%
X142240000Y-96520000D03*
%TO.P,J2,6,Pin_6*%
%TO.N,/Red_LED*%
X142240000Y-99060000D03*
%TO.P,J2,7,Pin_7*%
%TO.N,/Buzzer*%
X142240000Y-101600000D03*
%TO.P,J2,8,Pin_8*%
%TO.N,unconnected-(J2-Pin_8-Pad8)*%
X142240000Y-104140000D03*
%TO.P,J2,9,Pin_9*%
%TO.N,unconnected-(J2-Pin_9-Pad9)*%
X142240000Y-106680000D03*
%TO.P,J2,10,Pin_10*%
%TO.N,unconnected-(J2-Pin_10-Pad10)*%
X142240000Y-109220000D03*
%TO.P,J2,11,Pin_11*%
%TO.N,/Green_LED*%
X142240000Y-111760000D03*
%TO.P,J2,12,Pin_12*%
%TO.N,unconnected-(J2-Pin_12-Pad12)*%
X142240000Y-114300000D03*
%TO.P,J2,13,Pin_13*%
%TO.N,unconnected-(J2-Pin_13-Pad13)*%
X142240000Y-116840000D03*
%TO.P,J2,14,Pin_14*%
%TO.N,unconnected-(J2-Pin_14-Pad14)*%
X142240000Y-119380000D03*
%TO.P,J2,15,Pin_15*%
%TO.N,unconnected-(J2-Pin_15-Pad15)*%
X142240000Y-121920000D03*
%TD*%
D12*
%TO.P,J1,1,Pin_1*%
%TO.N,unconnected-(J1-Pin_1-Pad1)*%
X127000000Y-86360000D03*
D13*
%TO.P,J1,2,Pin_2*%
%TO.N,unconnected-(J1-Pin_2-Pad2)*%
X127000000Y-88900000D03*
%TO.P,J1,3,Pin_3*%
%TO.N,unconnected-(J1-Pin_3-Pad3)*%
X127000000Y-91440000D03*
%TO.P,J1,4,Pin_4*%
%TO.N,GND*%
X127000000Y-93980000D03*
%TO.P,J1,5,Pin_5*%
%TO.N,unconnected-(J1-Pin_5-Pad5)*%
X127000000Y-96520000D03*
%TO.P,J1,6,Pin_6*%
%TO.N,/Yellow_LED*%
X127000000Y-99060000D03*
%TO.P,J1,7,Pin_7*%
%TO.N,unconnected-(J1-Pin_7-Pad7)*%
X127000000Y-101600000D03*
%TO.P,J1,8,Pin_8*%
%TO.N,unconnected-(J1-Pin_8-Pad8)*%
X127000000Y-104140000D03*
%TO.P,J1,9,Pin_9*%
%TO.N,unconnected-(J1-Pin_9-Pad9)*%
X127000000Y-106680000D03*
%TO.P,J1,10,Pin_10*%
%TO.N,unconnected-(J1-Pin_10-Pad10)*%
X127000000Y-109220000D03*
%TO.P,J1,11,Pin_11*%
%TO.N,/Blue_LED*%
X127000000Y-111760000D03*
%TO.P,J1,12,Pin_12*%
%TO.N,unconnected-(J1-Pin_12-Pad12)*%
X127000000Y-114300000D03*
%TO.P,J1,13,Pin_13*%
%TO.N,unconnected-(J1-Pin_13-Pad13)*%
X127000000Y-116840000D03*
%TO.P,J1,14,Pin_14*%
%TO.N,unconnected-(J1-Pin_14-Pad14)*%
X127000000Y-119380000D03*
%TO.P,J1,15,Pin_15*%
%TO.N,unconnected-(J1-Pin_15-Pad15)*%
X127000000Y-121920000D03*
%TD*%
D14*
%TO.P,D3,1,K*%
%TO.N,GND*%
X147061000Y-120650000D03*
D15*
%TO.P,D3,2,A*%
%TO.N,Net-(D3-A)*%
X149601000Y-120650000D03*
%TD*%
D14*
%TO.P,D4,1,K*%
%TO.N,GND*%
X122174000Y-120396000D03*
D15*
%TO.P,D4,2,A*%
%TO.N,Net-(D4-A)*%
X119634000Y-120396000D03*
%TD*%
D16*
%TO.P,BZ1,1,-*%
%TO.N,/Buzzer*%
X137870000Y-102616000D03*
D17*
%TO.P,BZ1,2,+*%
%TO.N,GND*%
X131370000Y-102616000D03*
%TD*%
D14*
%TO.P,D2,1,K*%
%TO.N,GND*%
X122174000Y-87630000D03*
D15*
%TO.P,D2,2,A*%
%TO.N,Net-(D2-A)*%
X119634000Y-87630000D03*
%TD*%
D14*
%TO.P,D1,1,K*%
%TO.N,GND*%
X147061000Y-87630000D03*
D15*
%TO.P,D1,2,A*%
%TO.N,Net-(D1-A)*%
X149601000Y-87630000D03*
%TD*%
%TA.AperFunction,Conductor*%
%TO.N,GND*%
G36*
X148807525Y-82559496D02*
G01*
X149012732Y-82568456D01*
X149017654Y-82568870D01*
X149235755Y-82596056D01*
X149440849Y-82623058D01*
X149445420Y-82623837D01*
X149660399Y-82668913D01*
X149862714Y-82713766D01*
X149866969Y-82714869D01*
X149985715Y-82750222D01*
X150077449Y-82777533D01*
X150130220Y-82794171D01*
X150275378Y-82839939D01*
X150279180Y-82841277D01*
X150483265Y-82920912D01*
X150483908Y-82921163D01*
X150675763Y-83000632D01*
X150679234Y-83002196D01*
X150876710Y-83098737D01*
X150876733Y-83098748D01*
X151061061Y-83194704D01*
X151064169Y-83196437D01*
X151186039Y-83269054D01*
X151253108Y-83309019D01*
X151428522Y-83420771D01*
X151431212Y-83422586D01*
X151610304Y-83550456D01*
X151775405Y-83677142D01*
X151777733Y-83679019D01*
X151945753Y-83821323D01*
X152100324Y-83962962D01*
X152257037Y-84119675D01*
X152398676Y-84274246D01*
X152540979Y-84442265D01*
X152542856Y-84444593D01*
X152669543Y-84609695D01*
X152797412Y-84788786D01*
X152799244Y-84791501D01*
X152910986Y-84966901D01*
X153023561Y-85155829D01*
X153025294Y-85158937D01*
X153121251Y-85343266D01*
X153217786Y-85540731D01*
X153219366Y-85544235D01*
X153298836Y-85736091D01*
X153330362Y-85816886D01*
X153378708Y-85940785D01*
X153380072Y-85944657D01*
X153442466Y-86142549D01*
X153505124Y-86353014D01*
X153506232Y-86357286D01*
X153551099Y-86559663D01*
X153596157Y-86774559D01*
X153596946Y-86779191D01*
X153623952Y-86984318D01*
X153651126Y-87202322D01*
X153651543Y-87207288D01*
X153660512Y-87412701D01*
X153669500Y-87630000D01*
X153669500Y-120650000D01*
X153660512Y-120867298D01*
X153651543Y-121072710D01*
X153651126Y-121077676D01*
X153623952Y-121295681D01*
X153596946Y-121500807D01*
X153596157Y-121505439D01*
X153551099Y-121720336D01*
X153506232Y-121922712D01*
X153505124Y-121926984D01*
X153442466Y-122137450D01*
X153380072Y-122335341D01*
X153378700Y-122339236D01*
X153298836Y-122543908D01*
X153219366Y-122735763D01*
X153217786Y-122739267D01*
X153121251Y-122936733D01*
X153025294Y-123121061D01*
X153023561Y-123124169D01*
X152910986Y-123313098D01*
X152799244Y-123488497D01*
X152797412Y-123491212D01*
X152669543Y-123670304D01*
X152542856Y-123835405D01*
X152540979Y-123837733D01*
X152398676Y-124005753D01*
X152257037Y-124160324D01*
X152100324Y-124317037D01*
X151945753Y-124458676D01*
X151777733Y-124600979D01*
X151775405Y-124602856D01*
X151610304Y-124729543D01*
X151431212Y-124857412D01*
X151428497Y-124859244D01*
X151253098Y-124970986D01*
X151064169Y-125083561D01*
X151061061Y-125085294D01*
X150876733Y-125181251D01*
X150679267Y-125277786D01*
X150675763Y-125279366D01*
X150483908Y-125358836D01*
X150279236Y-125438700D01*
X150275341Y-125440072D01*
X150077450Y-125502466D01*
X149866984Y-125565124D01*
X149862712Y-125566232D01*
X149660336Y-125611099D01*
X149445439Y-125656157D01*
X149440807Y-125656946D01*
X149235681Y-125683952D01*
X149017676Y-125711126D01*
X149012710Y-125711543D01*
X148807298Y-125720512D01*
X148590000Y-125729500D01*
X120650000Y-125729500D01*
X120432701Y-125720512D01*
X120227288Y-125711543D01*
X120222322Y-125711126D01*
X120004318Y-125683952D01*
X119799191Y-125656946D01*
X119794559Y-125656157D01*
X119579663Y-125611099D01*
X119377286Y-125566232D01*
X119373014Y-125565124D01*
X119162549Y-125502466D01*
X118964657Y-125440072D01*
X118960785Y-125438708D01*
X118828255Y-125386995D01*
X118756091Y-125358836D01*
X118564235Y-125279366D01*
X118560731Y-125277786D01*
X118363266Y-125181251D01*
X118178937Y-125085294D01*
X118175829Y-125083561D01*
X117986901Y-124970986D01*
X117811501Y-124859244D01*
X117808786Y-124857412D01*
X117629695Y-124729543D01*
X117464593Y-124602856D01*
X117462265Y-124600979D01*
X117294246Y-124458676D01*
X117139675Y-124317037D01*
X116982962Y-124160324D01*
X116841323Y-124005753D01*
X116699019Y-123837733D01*
X116697142Y-123835405D01*
X116570456Y-123670304D01*
X116442586Y-123491212D01*
X116440771Y-123488522D01*
X116329013Y-123313098D01*
X116289054Y-123246039D01*
X116216437Y-123124169D01*
X116214704Y-123121061D01*
X116118748Y-122936733D01*
X116022196Y-122739234D01*
X116020632Y-122735763D01*
X115941163Y-122543908D01*
X115923398Y-122498381D01*
X115861277Y-122339180D01*
X115859939Y-122335378D01*
X115803197Y-122155413D01*
X115797533Y-122137449D01*
X115760273Y-122012297D01*
X115734869Y-121926969D01*
X115733766Y-121922712D01*
X115733165Y-121920000D01*
X125644341Y-121920000D01*
X125664936Y-122155403D01*
X125664938Y-122155413D01*
X125726094Y-122383655D01*
X125726096Y-122383659D01*
X125726097Y-122383663D01*
X125779591Y-122498381D01*
X125825965Y-122597830D01*
X125825967Y-122597834D01*
X125922547Y-122735763D01*
X125961505Y-122791401D01*
X126128599Y-122958495D01*
X126225384Y-123026265D01*
X126322165Y-123094032D01*
X126322167Y-123094033D01*
X126322170Y-123094035D01*
X126536337Y-123193903D01*
X126764592Y-123255063D01*
X126952918Y-123271539D01*
X126999999Y-123275659D01*
X127000000Y-123275659D01*
X127000001Y-123275659D01*
X127039234Y-123272226D01*
X127235408Y-123255063D01*
X127463663Y-123193903D01*
X127677830Y-123094035D01*
X127871401Y-122958495D01*
X128038495Y-122791401D01*
X128174035Y-122597830D01*
X128273903Y-122383663D01*
X128335063Y-122155408D01*
X128355659Y-121920000D01*
X128335063Y-121684592D01*
X128273903Y-121456337D01*
X128174035Y-121242171D01*
X128074487Y-121100000D01*
X128038494Y-121048597D01*
X127871402Y-120881506D01*
X127871401Y-120881505D01*
X127685842Y-120751575D01*
X127685841Y-120751574D01*
X127642216Y-120696997D01*
X127635024Y-120627498D01*
X127666546Y-120565144D01*
X127685836Y-120548428D01*
X127798506Y-120469536D01*
X129299279Y-120469536D01*
X129299279Y-122630103D01*
X139791592Y-122630103D01*
X139791592Y-121920000D01*
X140884341Y-121920000D01*
X140904936Y-122155403D01*
X140904938Y-122155413D01*
X140966094Y-122383655D01*
X140966096Y-122383659D01*
X140966097Y-122383663D01*
X141019591Y-122498381D01*
X141065965Y-122597830D01*
X141065967Y-122597834D01*
X141162547Y-122735763D01*
X141201505Y-122791401D01*
X141368599Y-122958495D01*
X141465384Y-123026265D01*
X141562165Y-123094032D01*
X141562167Y-123094033D01*
X141562170Y-123094035D01*
X141776337Y-123193903D01*
X142004592Y-123255063D01*
X142192918Y-123271539D01*
X142239999Y-123275659D01*
X142240000Y-123275659D01*
X142240001Y-123275659D01*
X142279234Y-123272226D01*
X142475408Y-123255063D01*
X142703663Y-123193903D01*
X142917830Y-123094035D01*
X143111401Y-122958495D01*
X143278495Y-122791401D01*
X143414035Y-122597830D01*
X143513903Y-122383663D01*
X143575063Y-122155408D01*
X143595659Y-121920000D01*
X143575063Y-121684592D01*
X143551819Y-121597844D01*
X145661000Y-121597844D01*
X145667401Y-121657372D01*
X145667403Y-121657379D01*
X145717645Y-121792086D01*
X145717649Y-121792093D01*
X145803809Y-121907187D01*
X145803812Y-121907190D01*
X145918906Y-121993350D01*
X145918913Y-121993354D01*
X146053620Y-122043596D01*
X146053627Y-122043598D01*
X146113155Y-122049999D01*
X146113172Y-122050000D01*
X146811000Y-122050000D01*
X146811000Y-121024189D01*
X146863547Y-121060016D01*
X146993173Y-121100000D01*
X147094724Y-121100000D01*
X147195138Y-121084865D01*
X147311000Y-121029068D01*
X147311000Y-122050000D01*
X148008828Y-122050000D01*
X148008844Y-122049999D01*
X148068372Y-122043598D01*
X148068379Y-122043596D01*
X148203086Y-121993354D01*
X148203093Y-121993350D01*
X148318187Y-121907190D01*
X148318190Y-121907187D01*
X148404350Y-121792093D01*
X148404355Y-121792084D01*
X148433075Y-121715081D01*
X148474945Y-121659147D01*
X148540409Y-121634729D01*
X148608682Y-121649580D01*
X148640484Y-121674428D01*
X148649216Y-121683913D01*
X148649219Y-121683915D01*
X148649222Y-121683918D01*
X148832365Y-121826464D01*
X148832371Y-121826468D01*
X148832374Y-121826470D01*
X149036497Y-121936936D01*
X149150487Y-121976068D01*
X149256015Y-122012297D01*
X149256017Y-122012297D01*
X149256019Y-122012298D01*
X149484951Y-122050500D01*
X149484952Y-122050500D01*
X149717048Y-122050500D01*
X149717049Y-122050500D01*
X149945981Y-122012298D01*
X150165503Y-121936936D01*
X150369626Y-121826470D01*
X150552784Y-121683913D01*
X150709979Y-121513153D01*
X150836924Y-121318849D01*
X150930157Y-121106300D01*
X150987134Y-120881305D01*
X150988312Y-120867093D01*
X151006300Y-120650006D01*
X151006300Y-120649993D01*
X150987135Y-120418702D01*
X150987133Y-120418691D01*
X150930157Y-120193699D01*
X150836924Y-119981151D01*
X150709983Y-119786852D01*
X150709980Y-119786849D01*
X150709979Y-119786847D01*
X150552784Y-119616087D01*
X150552779Y-119616083D01*
X150552777Y-119616081D01*
X150369634Y-119473535D01*
X150369628Y-119473531D01*
X150165504Y-119363064D01*
X150165495Y-119363061D01*
X149945984Y-119287702D01*
X149758404Y-119256401D01*
X149717049Y-119249500D01*
X149484951Y-119249500D01*
X149443596Y-119256401D01*
X149256015Y-119287702D01*
X149036504Y-119363061D01*
X149036495Y-119363064D01*
X148832371Y-119473531D01*
X148832365Y-119473535D01*
X148649222Y-119616081D01*
X148649215Y-119616087D01*
X148640484Y-119625572D01*
X148580595Y-119661561D01*
X148510757Y-119659458D01*
X148453143Y-119619932D01*
X148433075Y-119584918D01*
X148404355Y-119507915D01*
X148404350Y-119507906D01*
X148318190Y-119392812D01*
X148318187Y-119392809D01*
X148203093Y-119306649D01*
X148203086Y-119306645D01*
X148068379Y-119256403D01*
X148068372Y-119256401D01*
X148008844Y-119250000D01*
X147311000Y-119250000D01*
X147311000Y-120275810D01*
X147258453Y-120239984D01*
X147128827Y-120200000D01*
X147027276Y-120200000D01*
X146926862Y-120215135D01*
X146811000Y-120270931D01*
X146811000Y-119250000D01*
X146113155Y-119250000D01*
X146053627Y-119256401D01*
X146053620Y-119256403D01*
X145918913Y-119306645D01*
X145918906Y-119306649D01*
X145803812Y-119392809D01*
X145803809Y-119392812D01*
X145717649Y-119507906D01*
X145717645Y-119507913D01*
X145667403Y-119642620D01*
X145667401Y-119642627D01*
X145661000Y-119702155D01*
X145661000Y-120400000D01*
X146685722Y-120400000D01*
X146637375Y-120483740D01*
X146607190Y-120615992D01*
X146617327Y-120751265D01*
X146666887Y-120877541D01*
X146684797Y-120900000D01*
X145661000Y-120900000D01*
X145661000Y-121597844D01*
X143551819Y-121597844D01*
X143513903Y-121456337D01*
X143414035Y-121242171D01*
X143314487Y-121100000D01*
X143278494Y-121048597D01*
X143111402Y-120881506D01*
X143111401Y-120881505D01*
X142925842Y-120751575D01*
X142925841Y-120751574D01*
X142882216Y-120696997D01*
X142875024Y-120627498D01*
X142906546Y-120565144D01*
X142925836Y-120548428D01*
X143111401Y-120418495D01*
X143278495Y-120251401D01*
X143414035Y-120057830D01*
X143513903Y-119843663D01*
X143575063Y-119615408D01*
X143595659Y-119380000D01*
X143575063Y-119144592D01*
X143513903Y-118916337D01*
X143414035Y-118702171D01*
X143278495Y-118508599D01*
X143278494Y-118508597D01*
X143111402Y-118341506D01*
X143111396Y-118341501D01*
X142925842Y-118211575D01*
X142882217Y-118156998D01*
X142875023Y-118087500D01*
X142906546Y-118025145D01*
X142925842Y-118008425D01*
X142948026Y-117992891D01*
X143111401Y-117878495D01*
X143278495Y-117711401D01*
X143414035Y-117517830D01*
X143513903Y-117303663D01*
X143575063Y-117075408D01*
X143595659Y-116840000D01*
X143575063Y-116604592D01*
X143513903Y-116376337D01*
X143414035Y-116162171D01*
X143278495Y-115968599D01*
X143278494Y-115968597D01*
X143111402Y-115801506D01*
X143111401Y-115801505D01*
X142925842Y-115671575D01*
X142925841Y-115671574D01*
X142882216Y-115616997D01*
X142875024Y-115547498D01*
X142906546Y-115485144D01*
X142925836Y-115468428D01*
X143111401Y-115338495D01*
X143278495Y-115171401D01*
X143414035Y-114977830D01*
X143513903Y-114763663D01*
X143575063Y-114535408D01*
X143595659Y-114300000D01*
X143575063Y-114064592D01*
X143513903Y-113836337D01*
X143414035Y-113622171D01*
X143278495Y-113428599D01*
X143278494Y-113428597D01*
X143111402Y-113261506D01*
X143111396Y-113261501D01*
X142925842Y-113131575D01*
X142882217Y-113076998D01*
X142875023Y-113007500D01*
X142906546Y-112945145D01*
X142925842Y-112928425D01*
X142948026Y-112912891D01*
X143111401Y-112798495D01*
X143278495Y-112631401D01*
X143414035Y-112437830D01*
X143513903Y-112223663D01*
X143575063Y-111995408D01*
X143595659Y-111760000D01*
X143575063Y-111524592D01*
X143513903Y-111296337D01*
X143414035Y-111082171D01*
X143278495Y-110888599D01*
X143278494Y-110888597D01*
X143111402Y-110721506D01*
X143111401Y-110721505D01*
X142925842Y-110591575D01*
X142925841Y-110591574D01*
X142882216Y-110536997D01*
X142875024Y-110467498D01*
X142906546Y-110405144D01*
X142925836Y-110388428D01*
X143111401Y-110258495D01*
X143278495Y-110091401D01*
X143414035Y-109897830D01*
X143513903Y-109683663D01*
X143575063Y-109455408D01*
X143595659Y-109220000D01*
X143575063Y-108984592D01*
X143513903Y-108756337D01*
X143414035Y-108542171D01*
X143278495Y-108348599D01*
X143278494Y-108348597D01*
X143111402Y-108181506D01*
X143111396Y-108181501D01*
X142925842Y-108051575D01*
X142882217Y-107996998D01*
X142875023Y-107927500D01*
X142906546Y-107865145D01*
X142925842Y-107848425D01*
X142948026Y-107832891D01*
X143111401Y-107718495D01*
X143278495Y-107551401D01*
X143414035Y-107357830D01*
X143513903Y-107143663D01*
X143575063Y-106915408D01*
X143595659Y-106680000D01*
X143575063Y-106444592D01*
X143513903Y-106216337D01*
X143414035Y-106002171D01*
X143278495Y-105808599D01*
X143278494Y-105808597D01*
X143111402Y-105641506D01*
X143111401Y-105641505D01*
X142925842Y-105511575D01*
X142925841Y-105511574D01*
X142882216Y-105456997D01*
X142875024Y-105387498D01*
X142906546Y-105325144D01*
X142925836Y-105308428D01*
X143111401Y-105178495D01*
X143278495Y-105011401D01*
X143414035Y-104817830D01*
X143513903Y-104603663D01*
X143575063Y-104375408D01*
X143595659Y-104140000D01*
X143575063Y-103904592D01*
X143513903Y-103676337D01*
X143414035Y-103462171D01*
X143329521Y-103341471D01*
X143278494Y-103268597D01*
X143111402Y-103101506D01*
X143111396Y-103101501D01*
X142925842Y-102971575D01*
X142882217Y-102916998D01*
X142875023Y-102847500D01*
X142906546Y-102785145D01*
X142925842Y-102768425D01*
X143040859Y-102687889D01*
X143111401Y-102638495D01*
X143278495Y-102471401D01*
X143414035Y-102277830D01*
X143513903Y-102063663D01*
X143575063Y-101835408D01*
X143595659Y-101600000D01*
X143575063Y-101364592D01*
X143513903Y-101136337D01*
X143414035Y-100922171D01*
X143278495Y-100728599D01*
X143278494Y-100728597D01*
X143111402Y-100561506D01*
X143111401Y-100561505D01*
X142925842Y-100431575D01*
X142925841Y-100431574D01*
X142882216Y-100376997D01*
X142875024Y-100307498D01*
X142906546Y-100245144D01*
X142925836Y-100228428D01*
X143111401Y-100098495D01*
X143278495Y-99931401D01*
X143414035Y-99737830D01*
X143513903Y-99523663D01*
X143575063Y-99295408D01*
X143595659Y-99060000D01*
X143575063Y-98824592D01*
X143513903Y-98596337D01*
X143414035Y-98382171D01*
X143278495Y-98188599D01*
X143278494Y-98188597D01*
X143111402Y-98021506D01*
X143111396Y-98021501D01*
X142925842Y-97891575D01*
X142882217Y-97836998D01*
X142875023Y-97767500D01*
X142906546Y-97705145D01*
X142925842Y-97688425D01*
X142948026Y-97672891D01*
X143111401Y-97558495D01*
X143278495Y-97391401D01*
X143414035Y-97197830D01*
X143513903Y-96983663D01*
X143575063Y-96755408D01*
X143595659Y-96520000D01*
X143575063Y-96284592D01*
X143513903Y-96056337D01*
X143414035Y-95842171D01*
X143278495Y-95648599D01*
X143278494Y-95648597D01*
X143111402Y-95481506D01*
X143111401Y-95481505D01*
X142925842Y-95351575D01*
X142925841Y-95351574D01*
X142882216Y-95296997D01*
X142875024Y-95227498D01*
X142906546Y-95165144D01*
X142925836Y-95148428D01*
X143111401Y-95018495D01*
X143278495Y-94851401D01*
X143414035Y-94657830D01*
X143513903Y-94443663D01*
X143575063Y-94215408D01*
X143595659Y-93980000D01*
X143575063Y-93744592D01*
X143513903Y-93516337D01*
X143414035Y-93302171D01*
X143278495Y-93108599D01*
X143278494Y-93108597D01*
X143111402Y-92941506D01*
X143111396Y-92941501D01*
X142925842Y-92811575D01*
X142882217Y-92756998D01*
X142875023Y-92687500D01*
X142906546Y-92625145D01*
X142925842Y-92608425D01*
X142948026Y-92592891D01*
X143111401Y-92478495D01*
X143278495Y-92311401D01*
X143414035Y-92117830D01*
X143513903Y-91903663D01*
X143575063Y-91675408D01*
X143595659Y-91440000D01*
X143575063Y-91204592D01*
X143513903Y-90976337D01*
X143414035Y-90762171D01*
X143278495Y-90568599D01*
X143278494Y-90568597D01*
X143111402Y-90401506D01*
X143111401Y-90401505D01*
X142925842Y-90271575D01*
X142925405Y-90271269D01*
X142881781Y-90216692D01*
X142874588Y-90147193D01*
X142906110Y-90084839D01*
X142925405Y-90068119D01*
X143111082Y-89938105D01*
X143278105Y-89771082D01*
X143413600Y-89577578D01*
X143513429Y-89363492D01*
X143513432Y-89363486D01*
X143570636Y-89150000D01*
X142673686Y-89150000D01*
X142699493Y-89109844D01*
X142740000Y-88971889D01*
X142740000Y-88828111D01*
X142699493Y-88690156D01*
X142673686Y-88650000D01*
X143570636Y-88650000D01*
X143570635Y-88649999D01*
X143551301Y-88577844D01*
X145661000Y-88577844D01*
X145667401Y-88637372D01*
X145667403Y-88637379D01*
X145717645Y-88772086D01*
X145717649Y-88772093D01*
X145803809Y-88887187D01*
X145803812Y-88887190D01*
X145918906Y-88973350D01*
X145918913Y-88973354D01*
X146053620Y-89023596D01*
X146053627Y-89023598D01*
X146113155Y-89029999D01*
X146113172Y-89030000D01*
X146811000Y-89030000D01*
X146811000Y-88004189D01*
X146863547Y-88040016D01*
X146993173Y-88080000D01*
X147094724Y-88080000D01*
X147195138Y-88064865D01*
X147311000Y-88009068D01*
X147311000Y-89030000D01*
X148008828Y-89030000D01*
X148008844Y-89029999D01*
X148068372Y-89023598D01*
X148068379Y-89023596D01*
X148203086Y-88973354D01*
X148203093Y-88973350D01*
X148318187Y-88887190D01*
X148318190Y-88887187D01*
X148404350Y-88772093D01*
X148404355Y-88772084D01*
X148433075Y-88695081D01*
X148474945Y-88639147D01*
X148540409Y-88614729D01*
X148608682Y-88629580D01*
X148640484Y-88654428D01*
X148649216Y-88663913D01*
X148649219Y-88663915D01*
X148649222Y-88663918D01*
X148832365Y-88806464D01*
X148832371Y-88806468D01*
X148832374Y-88806470D01*
X149036497Y-88916936D01*
X149150487Y-88956068D01*
X149256015Y-88992297D01*
X149256017Y-88992297D01*
X149256019Y-88992298D01*
X149484951Y-89030500D01*
X149484952Y-89030500D01*
X149717048Y-89030500D01*
X149717049Y-89030500D01*
X149945981Y-88992298D01*
X150165503Y-88916936D01*
X150369626Y-88806470D01*
X150552784Y-88663913D01*
X150709979Y-88493153D01*
X150836924Y-88298849D01*
X150930157Y-88086300D01*
X150987134Y-87861305D01*
X150988456Y-87845351D01*
X151006300Y-87630006D01*
X151006300Y-87629993D01*
X150987135Y-87398702D01*
X150987133Y-87398691D01*
X150930157Y-87173699D01*
X150836924Y-86961151D01*
X150709983Y-86766852D01*
X150709980Y-86766849D01*
X150709979Y-86766847D01*
X150552784Y-86596087D01*
X150552779Y-86596083D01*
X150552777Y-86596081D01*
X150369634Y-86453535D01*
X150369628Y-86453531D01*
X150165504Y-86343064D01*
X150165495Y-86343061D01*
X149945984Y-86267702D01*
X149758404Y-86236401D01*
X149717049Y-86229500D01*
X149484951Y-86229500D01*
X149443596Y-86236401D01*
X149256015Y-86267702D01*
X149036504Y-86343061D01*
X149036495Y-86343064D01*
X148832371Y-86453531D01*
X148832365Y-86453535D01*
X148649222Y-86596081D01*
X148649215Y-86596087D01*
X148640484Y-86605572D01*
X148580595Y-86641561D01*
X148510757Y-86639458D01*
X148453143Y-86599932D01*
X148433075Y-86564918D01*
X148404355Y-86487915D01*
X148404350Y-86487906D01*
X148318190Y-86372812D01*
X148318187Y-86372809D01*
X148203093Y-86286649D01*
X148203086Y-86286645D01*
X148068379Y-86236403D01*
X148068372Y-86236401D01*
X148008844Y-86230000D01*
X147311000Y-86230000D01*
X147311000Y-87255810D01*
X147258453Y-87219984D01*
X147128827Y-87180000D01*
X147027276Y-87180000D01*
X146926862Y-87195135D01*
X146811000Y-87250931D01*
X146811000Y-86230000D01*
X146113155Y-86230000D01*
X146053627Y-86236401D01*
X146053620Y-86236403D01*
X145918913Y-86286645D01*
X145918906Y-86286649D01*
X145803812Y-86372809D01*
X145803809Y-86372812D01*
X145717649Y-86487906D01*
X145717645Y-86487913D01*
X145667403Y-86622620D01*
X145667401Y-86622627D01*
X145661000Y-86682155D01*
X145661000Y-87380000D01*
X146685722Y-87380000D01*
X146637375Y-87463740D01*
X146607190Y-87595992D01*
X146617327Y-87731265D01*
X146666887Y-87857541D01*
X146684797Y-87880000D01*
X145661000Y-87880000D01*
X145661000Y-88577844D01*
X143551301Y-88577844D01*
X143513432Y-88436513D01*
X143513429Y-88436507D01*
X143413600Y-88222422D01*
X143413599Y-88222420D01*
X143278113Y-88028926D01*
X143278108Y-88028920D01*
X143156053Y-87906865D01*
X143122568Y-87845542D01*
X143127552Y-87775850D01*
X143169424Y-87719917D01*
X143200400Y-87703002D01*
X143332331Y-87653796D01*
X143447546Y-87567546D01*
X143533796Y-87452331D01*
X143584091Y-87317483D01*
X143590500Y-87257873D01*
X143590499Y-85462128D01*
X143584091Y-85402517D01*
X143533796Y-85267669D01*
X143533795Y-85267668D01*
X143533793Y-85267664D01*
X143447547Y-85152455D01*
X143447544Y-85152452D01*
X143332335Y-85066206D01*
X143332328Y-85066202D01*
X143197482Y-85015908D01*
X143197483Y-85015908D01*
X143137883Y-85009501D01*
X143137881Y-85009500D01*
X143137873Y-85009500D01*
X143137864Y-85009500D01*
X141342129Y-85009500D01*
X141342123Y-85009501D01*
X141282516Y-85015908D01*
X141147671Y-85066202D01*
X141147664Y-85066206D01*
X141032455Y-85152452D01*
X141032452Y-85152455D01*
X140946206Y-85267664D01*
X140946202Y-85267671D01*
X140895908Y-85402517D01*
X140889501Y-85462116D01*
X140889501Y-85462123D01*
X140889500Y-85462135D01*
X140889500Y-87257870D01*
X140889501Y-87257876D01*
X140895908Y-87317483D01*
X140946202Y-87452328D01*
X140946206Y-87452335D01*
X141032452Y-87567544D01*
X141032455Y-87567547D01*
X141147664Y-87653793D01*
X141147671Y-87653797D01*
X141209902Y-87677007D01*
X141279598Y-87703002D01*
X141335531Y-87744873D01*
X141359949Y-87810337D01*
X141345098Y-87878610D01*
X141323947Y-87906865D01*
X141201886Y-88028926D01*
X141066400Y-88222420D01*
X141066399Y-88222422D01*
X140966570Y-88436507D01*
X140966567Y-88436513D01*
X140909364Y-88649999D01*
X140909364Y-88650000D01*
X141806314Y-88650000D01*
X141780507Y-88690156D01*
X141740000Y-88828111D01*
X141740000Y-88971889D01*
X141780507Y-89109844D01*
X141806314Y-89150000D01*
X140909364Y-89150000D01*
X140966567Y-89363486D01*
X140966570Y-89363492D01*
X141066399Y-89577578D01*
X141201894Y-89771082D01*
X141368917Y-89938105D01*
X141554595Y-90068119D01*
X141598219Y-90122696D01*
X141605412Y-90192195D01*
X141573890Y-90254549D01*
X141554595Y-90271269D01*
X141368594Y-90401508D01*
X141201505Y-90568597D01*
X141065965Y-90762169D01*
X141065964Y-90762171D01*
X140966098Y-90976335D01*
X140966094Y-90976344D01*
X140904938Y-91204586D01*
X140904936Y-91204596D01*
X140884341Y-91439999D01*
X140884341Y-91440000D01*
X140904936Y-91675403D01*
X140904938Y-91675413D01*
X140966094Y-91903655D01*
X140966096Y-91903659D01*
X140966097Y-91903663D01*
X141065965Y-92117830D01*
X141065967Y-92117834D01*
X141201501Y-92311395D01*
X141201506Y-92311402D01*
X141368597Y-92478493D01*
X141368603Y-92478498D01*
X141554158Y-92608425D01*
X141597783Y-92663002D01*
X141604977Y-92732500D01*
X141573454Y-92794855D01*
X141554158Y-92811575D01*
X141368597Y-92941505D01*
X141201505Y-93108597D01*
X141065965Y-93302169D01*
X141065964Y-93302171D01*
X140966098Y-93516335D01*
X140966094Y-93516344D01*
X140904938Y-93744586D01*
X140904936Y-93744596D01*
X140884341Y-93979999D01*
X140884341Y-93980000D01*
X140904936Y-94215403D01*
X140904938Y-94215413D01*
X140966094Y-94443655D01*
X140966096Y-94443659D01*
X140966097Y-94443663D01*
X141065847Y-94657578D01*
X141065965Y-94657830D01*
X141065967Y-94657834D01*
X141201501Y-94851395D01*
X141201506Y-94851402D01*
X141368597Y-95018493D01*
X141368603Y-95018498D01*
X141554158Y-95148425D01*
X141597783Y-95203002D01*
X141604977Y-95272500D01*
X141573454Y-95334855D01*
X141554158Y-95351575D01*
X141368597Y-95481505D01*
X141201505Y-95648597D01*
X141065965Y-95842169D01*
X141065964Y-95842171D01*
X140966098Y-96056335D01*
X140966094Y-96056344D01*
X140904938Y-96284586D01*
X140904936Y-96284596D01*
X140884341Y-96519999D01*
X140884341Y-96520000D01*
X140904936Y-96755403D01*
X140904938Y-96755413D01*
X140966094Y-96983655D01*
X140966096Y-96983659D01*
X140966097Y-96983663D01*
X141065965Y-97197830D01*
X141065967Y-97197834D01*
X141201501Y-97391395D01*
X141201506Y-97391402D01*
X141368597Y-97558493D01*
X141368603Y-97558498D01*
X141554158Y-97688425D01*
X141597783Y-97743002D01*
X141604977Y-97812500D01*
X141573454Y-97874855D01*
X141554158Y-97891575D01*
X141368597Y-98021505D01*
X141201505Y-98188597D01*
X141065965Y-98382169D01*
X141065964Y-98382171D01*
X140966098Y-98596335D01*
X140966094Y-98596344D01*
X140904938Y-98824586D01*
X140904936Y-98824596D01*
X140884341Y-99059999D01*
X140884341Y-99060000D01*
X140904936Y-99295403D01*
X140904938Y-99295413D01*
X140966094Y-99523655D01*
X140966096Y-99523659D01*
X140966097Y-99523663D01*
X141065965Y-99737829D01*
X141065965Y-99737830D01*
X141065967Y-99737834D01*
X141201501Y-99931395D01*
X141201506Y-99931402D01*
X141368597Y-100098493D01*
X141368603Y-100098498D01*
X141554158Y-100228425D01*
X141597783Y-100283002D01*
X141604977Y-100352500D01*
X141573454Y-100414855D01*
X141554158Y-100431575D01*
X141368597Y-100561505D01*
X141201505Y-100728597D01*
X141065965Y-100922169D01*
X141065964Y-100922171D01*
X140966098Y-101136335D01*
X140966094Y-101136344D01*
X140904938Y-101364586D01*
X140904936Y-101364596D01*
X140884341Y-101599999D01*
X140884341Y-101600000D01*
X140904936Y-101835403D01*
X140904938Y-101835413D01*
X140966094Y-102063655D01*
X140966096Y-102063659D01*
X140966097Y-102063663D01*
X141015535Y-102169682D01*
X141065965Y-102277830D01*
X141065967Y-102277834D01*
X141201501Y-102471395D01*
X141201506Y-102471402D01*
X141368597Y-102638493D01*
X141368603Y-102638498D01*
X141554158Y-102768425D01*
X141597783Y-102823002D01*
X141604977Y-102892500D01*
X141573454Y-102954855D01*
X141554158Y-102971575D01*
X141368597Y-103101505D01*
X141201505Y-103268597D01*
X141065965Y-103462169D01*
X141065964Y-103462171D01*
X140966098Y-103676335D01*
X140966094Y-103676344D01*
X140904938Y-103904586D01*
X140904936Y-103904596D01*
X140884341Y-104139999D01*
X140884341Y-104140000D01*
X140904936Y-104375403D01*
X140904938Y-104375413D01*
X140966094Y-104603655D01*
X140966096Y-104603659D01*
X140966097Y-104603663D01*
X141065965Y-104817830D01*
X141065967Y-104817834D01*
X141201501Y-105011395D01*
X141201506Y-105011402D01*
X141368597Y-105178493D01*
X141368603Y-105178498D01*
X141554158Y-105308425D01*
X141597783Y-105363002D01*
X141604977Y-105432500D01*
X141573454Y-105494855D01*
X141554158Y-105511575D01*
X141368597Y-105641505D01*
X141201505Y-105808597D01*
X141065965Y-106002169D01*
X141065964Y-106002171D01*
X140966098Y-106216335D01*
X140966094Y-106216344D01*
X140904938Y-106444586D01*
X140904936Y-106444596D01*
X140884341Y-106679999D01*
X140884341Y-106680000D01*
X140904936Y-106915403D01*
X140904938Y-106915413D01*
X140966094Y-107143655D01*
X140966096Y-107143659D01*
X140966097Y-107143663D01*
X141065965Y-107357829D01*
X141065965Y-107357830D01*
X141065967Y-107357834D01*
X141201501Y-107551395D01*
X141201506Y-107551402D01*
X141368597Y-107718493D01*
X141368603Y-107718498D01*
X141554158Y-107848425D01*
X141597783Y-107903002D01*
X141604977Y-107972500D01*
X141573454Y-108034855D01*
X141554158Y-108051575D01*
X141368597Y-108181505D01*
X141201505Y-108348597D01*
X141065965Y-108542169D01*
X141065964Y-108542171D01*
X140966098Y-108756335D01*
X140966094Y-108756344D01*
X140904938Y-108984586D01*
X140904936Y-108984596D01*
X140884341Y-109219999D01*
X140884341Y-109220000D01*
X140904936Y-109455403D01*
X140904938Y-109455413D01*
X140966094Y-109683655D01*
X140966096Y-109683659D01*
X140966097Y-109683663D01*
X141065965Y-109897829D01*
X141065965Y-109897830D01*
X141065967Y-109897834D01*
X141201501Y-110091395D01*
X141201506Y-110091402D01*
X141368597Y-110258493D01*
X141368603Y-110258498D01*
X141554158Y-110388425D01*
X141597783Y-110443002D01*
X141604977Y-110512500D01*
X141573454Y-110574855D01*
X141554158Y-110591575D01*
X141368597Y-110721505D01*
X141201505Y-110888597D01*
X141065965Y-111082169D01*
X141065964Y-111082171D01*
X140966098Y-111296335D01*
X140966094Y-111296344D01*
X140904938Y-111524586D01*
X140904936Y-111524596D01*
X140884341Y-111759999D01*
X140884341Y-111760000D01*
X140904936Y-111995403D01*
X140904938Y-111995413D01*
X140966094Y-112223655D01*
X140966096Y-112223659D01*
X140966097Y-112223663D01*
X141065965Y-112437830D01*
X141065967Y-112437834D01*
X141201501Y-112631395D01*
X141201506Y-112631402D01*
X141368597Y-112798493D01*
X141368603Y-112798498D01*
X141554158Y-112928425D01*
X141597783Y-112983002D01*
X141604977Y-113052500D01*
X141573454Y-113114855D01*
X141554158Y-113131575D01*
X141368597Y-113261505D01*
X141201505Y-113428597D01*
X141065965Y-113622169D01*
X141065964Y-113622171D01*
X140966098Y-113836335D01*
X140966094Y-113836344D01*
X140904938Y-114064586D01*
X140904936Y-114064596D01*
X140884341Y-114299999D01*
X140884341Y-114300000D01*
X140904936Y-114535403D01*
X140904938Y-114535413D01*
X140966094Y-114763655D01*
X140966096Y-114763659D01*
X140966097Y-114763663D01*
X141065965Y-114977829D01*
X141065965Y-114977830D01*
X141065967Y-114977834D01*
X141201501Y-115171395D01*
X141201506Y-115171402D01*
X141368597Y-115338493D01*
X141368603Y-115338498D01*
X141554158Y-115468425D01*
X141597783Y-115523002D01*
X141604977Y-115592500D01*
X141573454Y-115654855D01*
X141554158Y-115671575D01*
X141368597Y-115801505D01*
X141201505Y-115968597D01*
X141065965Y-116162169D01*
X141065964Y-116162171D01*
X140966098Y-116376335D01*
X140966094Y-116376344D01*
X140904938Y-116604586D01*
X140904936Y-116604596D01*
X140884341Y-116839999D01*
X140884341Y-116840000D01*
X140904936Y-117075403D01*
X140904938Y-117075413D01*
X140966094Y-117303655D01*
X140966096Y-117303659D01*
X140966097Y-117303663D01*
X141065965Y-117517830D01*
X141065967Y-117517834D01*
X141201501Y-117711395D01*
X141201506Y-117711402D01*
X141368597Y-117878493D01*
X141368603Y-117878498D01*
X141554158Y-118008425D01*
X141597783Y-118063002D01*
X141604977Y-118132500D01*
X141573454Y-118194855D01*
X141554158Y-118211575D01*
X141368597Y-118341505D01*
X141201505Y-118508597D01*
X141065965Y-118702169D01*
X141065964Y-118702171D01*
X140966098Y-118916335D01*
X140966094Y-118916344D01*
X140904938Y-119144586D01*
X140904936Y-119144596D01*
X140884341Y-119379999D01*
X140884341Y-119380000D01*
X140904936Y-119615403D01*
X140904938Y-119615413D01*
X140966094Y-119843655D01*
X140966096Y-119843659D01*
X140966097Y-119843663D01*
X141010880Y-119939700D01*
X141065965Y-120057830D01*
X141065967Y-120057834D01*
X141201501Y-120251395D01*
X141201506Y-120251402D01*
X141368597Y-120418493D01*
X141368603Y-120418498D01*
X141554158Y-120548425D01*
X141597783Y-120603002D01*
X141604977Y-120672500D01*
X141573454Y-120734855D01*
X141554158Y-120751575D01*
X141368597Y-120881505D01*
X141201505Y-121048597D01*
X141065965Y-121242169D01*
X141065964Y-121242171D01*
X140966098Y-121456335D01*
X140966094Y-121456344D01*
X140904938Y-121684586D01*
X140904936Y-121684596D01*
X140884341Y-121919999D01*
X140884341Y-121920000D01*
X139791592Y-121920000D01*
X139791592Y-120469536D01*
X129299279Y-120469536D01*
X127798506Y-120469536D01*
X127871401Y-120418495D01*
X128038495Y-120251401D01*
X128174035Y-120057830D01*
X128273903Y-119843663D01*
X128335063Y-119615408D01*
X128355659Y-119380000D01*
X128335063Y-119144592D01*
X128273903Y-118916337D01*
X128174035Y-118702171D01*
X128038495Y-118508599D01*
X128038494Y-118508597D01*
X127871402Y-118341506D01*
X127871396Y-118341501D01*
X127685842Y-118211575D01*
X127642217Y-118156998D01*
X127635023Y-118087500D01*
X127666546Y-118025145D01*
X127685842Y-118008425D01*
X127708026Y-117992891D01*
X127871401Y-117878495D01*
X128038495Y-117711401D01*
X128174035Y-117517830D01*
X128273903Y-117303663D01*
X128335063Y-117075408D01*
X128355659Y-116840000D01*
X128335063Y-116604592D01*
X128273903Y-116376337D01*
X128174035Y-116162171D01*
X128038495Y-115968599D01*
X128038494Y-115968597D01*
X127871402Y-115801506D01*
X127871401Y-115801505D01*
X127685842Y-115671575D01*
X127685841Y-115671574D01*
X127642216Y-115616997D01*
X127635024Y-115547498D01*
X127666546Y-115485144D01*
X127685836Y-115468428D01*
X127871401Y-115338495D01*
X128038495Y-115171401D01*
X128174035Y-114977830D01*
X128273903Y-114763663D01*
X128335063Y-114535408D01*
X128355659Y-114300000D01*
X128335063Y-114064592D01*
X128273903Y-113836337D01*
X128174035Y-113622171D01*
X128038495Y-113428599D01*
X128038494Y-113428597D01*
X127871402Y-113261506D01*
X127871396Y-113261501D01*
X127685842Y-113131575D01*
X127642217Y-113076998D01*
X127635023Y-113007500D01*
X127666546Y-112945145D01*
X127685842Y-112928425D01*
X127708026Y-112912891D01*
X127871401Y-112798495D01*
X128038495Y-112631401D01*
X128174035Y-112437830D01*
X128273903Y-112223663D01*
X128335063Y-111995408D01*
X128355659Y-111760000D01*
X128335063Y-111524592D01*
X128273903Y-111296337D01*
X128174035Y-111082171D01*
X128038495Y-110888599D01*
X128038494Y-110888597D01*
X127871402Y-110721506D01*
X127871401Y-110721505D01*
X127685842Y-110591575D01*
X127685841Y-110591574D01*
X127642216Y-110536997D01*
X127635024Y-110467498D01*
X127666546Y-110405144D01*
X127685836Y-110388428D01*
X127871401Y-110258495D01*
X128038495Y-110091401D01*
X128174035Y-109897830D01*
X128273903Y-109683663D01*
X128335063Y-109455408D01*
X128355659Y-109220000D01*
X128335063Y-108984592D01*
X128273903Y-108756337D01*
X128174035Y-108542171D01*
X128038495Y-108348599D01*
X128038494Y-108348597D01*
X127871402Y-108181506D01*
X127871396Y-108181501D01*
X127685842Y-108051575D01*
X127642217Y-107996998D01*
X127635023Y-107927500D01*
X127666546Y-107865145D01*
X127685842Y-107848425D01*
X127708026Y-107832891D01*
X127871401Y-107718495D01*
X128038495Y-107551401D01*
X128174035Y-107357830D01*
X128273903Y-107143663D01*
X128335063Y-106915408D01*
X128355659Y-106680000D01*
X128335063Y-106444592D01*
X128273903Y-106216337D01*
X128174035Y-106002171D01*
X128038495Y-105808599D01*
X128038494Y-105808597D01*
X127871402Y-105641506D01*
X127871401Y-105641505D01*
X127685842Y-105511575D01*
X127685841Y-105511574D01*
X127642216Y-105456997D01*
X127635024Y-105387498D01*
X127666546Y-105325144D01*
X127685836Y-105308428D01*
X127871401Y-105178495D01*
X128038495Y-105011401D01*
X128174035Y-104817830D01*
X128273903Y-104603663D01*
X128335063Y-104375408D01*
X128355659Y-104140000D01*
X128335063Y-103904592D01*
X128273903Y-103676337D01*
X128174035Y-103462171D01*
X128089521Y-103341471D01*
X128038494Y-103268597D01*
X127871402Y-103101506D01*
X127871396Y-103101501D01*
X127685842Y-102971575D01*
X127642217Y-102916998D01*
X127635023Y-102847500D01*
X127666546Y-102785145D01*
X127685842Y-102768425D01*
X127800859Y-102687889D01*
X127871401Y-102638495D01*
X127893894Y-102616002D01*
X130065034Y-102616002D01*
X130084858Y-102842599D01*
X130084860Y-102842610D01*
X130143730Y-103062317D01*
X130143734Y-103062326D01*
X130239865Y-103268481D01*
X130239866Y-103268483D01*
X130290973Y-103341471D01*
X130290974Y-103341472D01*
X130886922Y-102745523D01*
X130910507Y-102825844D01*
X130988239Y-102946798D01*
X131096900Y-103040952D01*
X131227685Y-103100680D01*
X131237466Y-103102086D01*
X130644526Y-103695025D01*
X130644526Y-103695026D01*
X130717512Y-103746131D01*
X130717516Y-103746133D01*
X130923673Y-103842265D01*
X130923682Y-103842269D01*
X131143389Y-103901139D01*
X131143400Y-103901141D01*
X131369998Y-103920966D01*
X131370002Y-103920966D01*
X131596599Y-103901141D01*
X131596610Y-103901139D01*
X131816317Y-103842269D01*
X131816331Y-103842264D01*
X132022478Y-103746136D01*
X132095472Y-103695025D01*
X131864317Y-103463870D01*
X136569500Y-103463870D01*
X136569501Y-103463876D01*
X136575908Y-103523483D01*
X136626202Y-103658328D01*
X136626206Y-103658335D01*
X136712452Y-103773544D01*
X136712455Y-103773547D01*
X136827664Y-103859793D01*
X136827671Y-103859797D01*
X136962517Y-103910091D01*
X136962516Y-103910091D01*
X136969444Y-103910835D01*
X137022127Y-103916500D01*
X138717872Y-103916499D01*
X138777483Y-103910091D01*
X138912331Y-103859796D01*
X139027546Y-103773546D01*
X139113796Y-103658331D01*
X139164091Y-103523483D01*
X139170500Y-103463873D01*
X139170499Y-101768128D01*
X139164091Y-101708517D01*
X139123616Y-101599999D01*
X139113797Y-101573671D01*
X139113793Y-101573664D01*
X139027547Y-101458455D01*
X139027544Y-101458452D01*
X138912335Y-101372206D01*
X138912328Y-101372202D01*
X138777482Y-101321908D01*
X138777483Y-101321908D01*
X138717883Y-101315501D01*
X138717881Y-101315500D01*
X138717873Y-101315500D01*
X138717864Y-101315500D01*
X137022129Y-101315500D01*
X137022123Y-101315501D01*
X136962516Y-101321908D01*
X136827671Y-101372202D01*
X136827664Y-101372206D01*
X136712455Y-101458452D01*
X136712452Y-101458455D01*
X136626206Y-101573664D01*
X136626202Y-101573671D01*
X136575908Y-101708517D01*
X136569501Y-101768116D01*
X136569501Y-101768123D01*
X136569500Y-101768135D01*
X136569500Y-103463870D01*
X131864317Y-103463870D01*
X131502534Y-103102086D01*
X131512315Y-103100680D01*
X131643100Y-103040952D01*
X131751761Y-102946798D01*
X131829493Y-102825844D01*
X131853077Y-102745523D01*
X132449025Y-103341472D01*
X132500136Y-103268478D01*
X132596264Y-103062331D01*
X132596269Y-103062317D01*
X132655139Y-102842610D01*
X132655141Y-102842599D01*
X132674966Y-102616002D01*
X132674966Y-102615997D01*
X132655141Y-102389400D01*
X132655139Y-102389389D01*
X132596269Y-102169682D01*
X132596265Y-102169673D01*
X132500133Y-101963516D01*
X132500131Y-101963512D01*
X132449026Y-101890526D01*
X132449025Y-101890526D01*
X131853076Y-102486474D01*
X131829493Y-102406156D01*
X131751761Y-102285202D01*
X131643100Y-102191048D01*
X131512315Y-102131320D01*
X131502533Y-102129913D01*
X132095472Y-101536974D01*
X132095471Y-101536973D01*
X132022483Y-101485866D01*
X132022481Y-101485865D01*
X131816326Y-101389734D01*
X131816317Y-101389730D01*
X131596610Y-101330860D01*
X131596599Y-101330858D01*
X131370002Y-101311034D01*
X131369998Y-101311034D01*
X131143400Y-101330858D01*
X131143389Y-101330860D01*
X130923682Y-101389730D01*
X130923673Y-101389734D01*
X130717513Y-101485868D01*
X130644527Y-101536972D01*
X130644526Y-101536973D01*
X131237467Y-102129913D01*
X131227685Y-102131320D01*
X131096900Y-102191048D01*
X130988239Y-102285202D01*
X130910507Y-102406156D01*
X130886923Y-102486476D01*
X130290973Y-101890526D01*
X130290972Y-101890527D01*
X130239868Y-101963513D01*
X130143734Y-102169673D01*
X130143730Y-102169682D01*
X130084860Y-102389389D01*
X130084858Y-102389400D01*
X130065034Y-102615997D01*
X130065034Y-102616002D01*
X127893894Y-102616002D01*
X128038495Y-102471401D01*
X128174035Y-102277830D01*
X128273903Y-102063663D01*
X128335063Y-101835408D01*
X128355659Y-101600000D01*
X128335063Y-101364592D01*
X128273903Y-101136337D01*
X128174035Y-100922171D01*
X128038495Y-100728599D01*
X128038494Y-100728597D01*
X127871402Y-100561506D01*
X127871401Y-100561505D01*
X127685842Y-100431575D01*
X127685841Y-100431574D01*
X127642216Y-100376997D01*
X127635024Y-100307498D01*
X127666546Y-100245144D01*
X127685836Y-100228428D01*
X127871401Y-100098495D01*
X128038495Y-99931401D01*
X128174035Y-99737830D01*
X128273903Y-99523663D01*
X128335063Y-99295408D01*
X128355659Y-99060000D01*
X128335063Y-98824592D01*
X128273903Y-98596337D01*
X128174035Y-98382171D01*
X128038495Y-98188599D01*
X128038494Y-98188597D01*
X127871402Y-98021506D01*
X127871396Y-98021501D01*
X127685842Y-97891575D01*
X127642217Y-97836998D01*
X127635023Y-97767500D01*
X127666546Y-97705145D01*
X127685842Y-97688425D01*
X127708026Y-97672891D01*
X127871401Y-97558495D01*
X128038495Y-97391401D01*
X128174035Y-97197830D01*
X128273903Y-96983663D01*
X128335063Y-96755408D01*
X128355659Y-96520000D01*
X128335063Y-96284592D01*
X128273903Y-96056337D01*
X128174035Y-95842171D01*
X128038495Y-95648599D01*
X128038494Y-95648597D01*
X127871402Y-95481506D01*
X127871401Y-95481505D01*
X127685842Y-95351575D01*
X127685405Y-95351269D01*
X127641781Y-95296692D01*
X127634588Y-95227193D01*
X127666110Y-95164839D01*
X127685405Y-95148119D01*
X127871082Y-95018105D01*
X128038105Y-94851082D01*
X128173600Y-94657578D01*
X128273429Y-94443492D01*
X128273432Y-94443486D01*
X128330636Y-94230000D01*
X127433686Y-94230000D01*
X127459493Y-94189844D01*
X127500000Y-94051889D01*
X127500000Y-93908111D01*
X127459493Y-93770156D01*
X127433686Y-93730000D01*
X128330636Y-93730000D01*
X128330635Y-93729999D01*
X128273432Y-93516513D01*
X128273429Y-93516507D01*
X128173600Y-93302422D01*
X128173599Y-93302420D01*
X128038113Y-93108926D01*
X128038108Y-93108920D01*
X127871078Y-92941890D01*
X127685405Y-92811879D01*
X127641780Y-92757302D01*
X127634588Y-92687804D01*
X127666110Y-92625449D01*
X127685406Y-92608730D01*
X127685842Y-92608425D01*
X127871401Y-92478495D01*
X128038495Y-92311401D01*
X128174035Y-92117830D01*
X128273903Y-91903663D01*
X128335063Y-91675408D01*
X128355659Y-91440000D01*
X128335063Y-91204592D01*
X128273903Y-90976337D01*
X128174035Y-90762171D01*
X128038495Y-90568599D01*
X128038494Y-90568597D01*
X127871402Y-90401506D01*
X127871401Y-90401505D01*
X127685842Y-90271575D01*
X127685841Y-90271574D01*
X127642216Y-90216997D01*
X127635024Y-90147498D01*
X127666546Y-90085144D01*
X127685836Y-90068428D01*
X127871401Y-89938495D01*
X128038495Y-89771401D01*
X128174035Y-89577830D01*
X128273903Y-89363663D01*
X128335063Y-89135408D01*
X128355659Y-88900000D01*
X128335063Y-88664592D01*
X128273903Y-88436337D01*
X128174035Y-88222171D01*
X128074486Y-88080000D01*
X128038496Y-88028600D01*
X128015903Y-88006007D01*
X127916567Y-87906671D01*
X127883084Y-87845351D01*
X127888068Y-87775659D01*
X127929939Y-87719725D01*
X127960915Y-87702810D01*
X128092331Y-87653796D01*
X128207546Y-87567546D01*
X128293796Y-87452331D01*
X128344091Y-87317483D01*
X128350500Y-87257873D01*
X128350499Y-85462128D01*
X128344091Y-85402517D01*
X128293796Y-85267669D01*
X128293795Y-85267668D01*
X128293793Y-85267664D01*
X128207547Y-85152455D01*
X128207544Y-85152452D01*
X128092335Y-85066206D01*
X128092328Y-85066202D01*
X127957482Y-85015908D01*
X127957483Y-85015908D01*
X127897883Y-85009501D01*
X127897881Y-85009500D01*
X127897873Y-85009500D01*
X127897864Y-85009500D01*
X126102129Y-85009500D01*
X126102123Y-85009501D01*
X126042516Y-85015908D01*
X125907671Y-85066202D01*
X125907664Y-85066206D01*
X125792455Y-85152452D01*
X125792452Y-85152455D01*
X125706206Y-85267664D01*
X125706202Y-85267671D01*
X125655908Y-85402517D01*
X125649501Y-85462116D01*
X125649501Y-85462123D01*
X125649500Y-85462135D01*
X125649500Y-87257870D01*
X125649501Y-87257876D01*
X125655908Y-87317483D01*
X125706202Y-87452328D01*
X125706206Y-87452335D01*
X125792452Y-87567544D01*
X125792455Y-87567547D01*
X125907664Y-87653793D01*
X125907671Y-87653797D01*
X126039081Y-87702810D01*
X126095015Y-87744681D01*
X126119432Y-87810145D01*
X126104580Y-87878418D01*
X126083430Y-87906673D01*
X125961503Y-88028600D01*
X125825965Y-88222169D01*
X125825964Y-88222171D01*
X125726098Y-88436335D01*
X125726094Y-88436344D01*
X125664938Y-88664586D01*
X125664936Y-88664596D01*
X125644341Y-88899999D01*
X125644341Y-88900000D01*
X125664936Y-89135403D01*
X125664938Y-89135413D01*
X125726094Y-89363655D01*
X125726096Y-89363659D01*
X125726097Y-89363663D01*
X125825847Y-89577578D01*
X125825965Y-89577830D01*
X125825967Y-89577834D01*
X125961501Y-89771395D01*
X125961506Y-89771402D01*
X126128597Y-89938493D01*
X126128603Y-89938498D01*
X126314158Y-90068425D01*
X126357783Y-90123002D01*
X126364977Y-90192500D01*
X126333454Y-90254855D01*
X126314158Y-90271575D01*
X126128597Y-90401505D01*
X125961505Y-90568597D01*
X125825965Y-90762169D01*
X125825964Y-90762171D01*
X125726098Y-90976335D01*
X125726094Y-90976344D01*
X125664938Y-91204586D01*
X125664936Y-91204596D01*
X125644341Y-91439999D01*
X125644341Y-91440000D01*
X125664936Y-91675403D01*
X125664938Y-91675413D01*
X125726094Y-91903655D01*
X125726096Y-91903659D01*
X125726097Y-91903663D01*
X125825965Y-92117829D01*
X125825965Y-92117830D01*
X125825967Y-92117834D01*
X125961501Y-92311395D01*
X125961506Y-92311402D01*
X126128597Y-92478493D01*
X126128603Y-92478498D01*
X126314594Y-92608730D01*
X126358219Y-92663307D01*
X126365413Y-92732805D01*
X126333890Y-92795160D01*
X126314595Y-92811880D01*
X126128922Y-92941890D01*
X126128920Y-92941891D01*
X125961891Y-93108920D01*
X125961886Y-93108926D01*
X125826400Y-93302420D01*
X125826399Y-93302422D01*
X125726570Y-93516507D01*
X125726567Y-93516513D01*
X125669364Y-93729999D01*
X125669364Y-93730000D01*
X126566314Y-93730000D01*
X126540507Y-93770156D01*
X126500000Y-93908111D01*
X126500000Y-94051889D01*
X126540507Y-94189844D01*
X126566314Y-94230000D01*
X125669364Y-94230000D01*
X125726567Y-94443486D01*
X125726570Y-94443492D01*
X125826399Y-94657578D01*
X125961894Y-94851082D01*
X126128917Y-95018105D01*
X126314595Y-95148119D01*
X126358219Y-95202696D01*
X126365412Y-95272195D01*
X126333890Y-95334549D01*
X126314595Y-95351269D01*
X126128594Y-95481508D01*
X125961505Y-95648597D01*
X125825965Y-95842169D01*
X125825964Y-95842171D01*
X125726098Y-96056335D01*
X125726094Y-96056344D01*
X125664938Y-96284586D01*
X125664936Y-96284596D01*
X125644341Y-96519999D01*
X125644341Y-96520000D01*
X125664936Y-96755403D01*
X125664938Y-96755413D01*
X125726094Y-96983655D01*
X125726096Y-96983659D01*
X125726097Y-96983663D01*
X125825965Y-97197830D01*
X125825967Y-97197834D01*
X125961501Y-97391395D01*
X125961506Y-97391402D01*
X126128597Y-97558493D01*
X126128603Y-97558498D01*
X126314158Y-97688425D01*
X126357783Y-97743002D01*
X126364977Y-97812500D01*
X126333454Y-97874855D01*
X126314158Y-97891575D01*
X126128597Y-98021505D01*
X125961505Y-98188597D01*
X125825965Y-98382169D01*
X125825964Y-98382171D01*
X125726098Y-98596335D01*
X125726094Y-98596344D01*
X125664938Y-98824586D01*
X125664936Y-98824596D01*
X125644341Y-99059999D01*
X125644341Y-99060000D01*
X125664936Y-99295403D01*
X125664938Y-99295413D01*
X125726094Y-99523655D01*
X125726096Y-99523659D01*
X125726097Y-99523663D01*
X125825964Y-99737829D01*
X125825965Y-99737830D01*
X125825967Y-99737834D01*
X125961501Y-99931395D01*
X125961506Y-99931402D01*
X126128597Y-100098493D01*
X126128603Y-100098498D01*
X126314158Y-100228425D01*
X126357783Y-100283002D01*
X126364977Y-100352500D01*
X126333454Y-100414855D01*
X126314158Y-100431575D01*
X126128597Y-100561505D01*
X125961505Y-100728597D01*
X125825965Y-100922169D01*
X125825964Y-100922171D01*
X125726098Y-101136335D01*
X125726094Y-101136344D01*
X125664938Y-101364586D01*
X125664936Y-101364596D01*
X125644341Y-101599999D01*
X125644341Y-101600000D01*
X125664936Y-101835403D01*
X125664938Y-101835413D01*
X125726094Y-102063655D01*
X125726096Y-102063659D01*
X125726097Y-102063663D01*
X125775535Y-102169682D01*
X125825965Y-102277830D01*
X125825967Y-102277834D01*
X125961501Y-102471395D01*
X125961506Y-102471402D01*
X126128597Y-102638493D01*
X126128603Y-102638498D01*
X126314158Y-102768425D01*
X126357783Y-102823002D01*
X126364977Y-102892500D01*
X126333454Y-102954855D01*
X126314158Y-102971575D01*
X126128597Y-103101505D01*
X125961505Y-103268597D01*
X125825965Y-103462169D01*
X125825964Y-103462171D01*
X125726098Y-103676335D01*
X125726094Y-103676344D01*
X125664938Y-103904586D01*
X125664936Y-103904596D01*
X125644341Y-104139999D01*
X125644341Y-104140000D01*
X125664936Y-104375403D01*
X125664938Y-104375413D01*
X125726094Y-104603655D01*
X125726096Y-104603659D01*
X125726097Y-104603663D01*
X125825964Y-104817829D01*
X125825965Y-104817830D01*
X125825967Y-104817834D01*
X125961501Y-105011395D01*
X125961506Y-105011402D01*
X126128597Y-105178493D01*
X126128603Y-105178498D01*
X126314158Y-105308425D01*
X126357783Y-105363002D01*
X126364977Y-105432500D01*
X126333454Y-105494855D01*
X126314158Y-105511575D01*
X126128597Y-105641505D01*
X125961505Y-105808597D01*
X125825965Y-106002169D01*
X125825964Y-106002171D01*
X125726098Y-106216335D01*
X125726094Y-106216344D01*
X125664938Y-106444586D01*
X125664936Y-106444596D01*
X125644341Y-106679999D01*
X125644341Y-106680000D01*
X125664936Y-106915403D01*
X125664938Y-106915413D01*
X125726094Y-107143655D01*
X125726096Y-107143659D01*
X125726097Y-107143663D01*
X125825965Y-107357829D01*
X125825965Y-107357830D01*
X125825967Y-107357834D01*
X125961501Y-107551395D01*
X125961506Y-107551402D01*
X126128597Y-107718493D01*
X126128603Y-107718498D01*
X126314158Y-107848425D01*
X126357783Y-107903002D01*
X126364977Y-107972500D01*
X126333454Y-108034855D01*
X126314158Y-108051575D01*
X126128597Y-108181505D01*
X125961505Y-108348597D01*
X125825965Y-108542169D01*
X125825964Y-108542171D01*
X125726098Y-108756335D01*
X125726094Y-108756344D01*
X125664938Y-108984586D01*
X125664936Y-108984596D01*
X125644341Y-109219999D01*
X125644341Y-109220000D01*
X125664936Y-109455403D01*
X125664938Y-109455413D01*
X125726094Y-109683655D01*
X125726096Y-109683659D01*
X125726097Y-109683663D01*
X125825964Y-109897829D01*
X125825965Y-109897830D01*
X125825967Y-109897834D01*
X125961501Y-110091395D01*
X125961506Y-110091402D01*
X126128597Y-110258493D01*
X126128603Y-110258498D01*
X126314158Y-110388425D01*
X126357783Y-110443002D01*
X126364977Y-110512500D01*
X126333454Y-110574855D01*
X126314158Y-110591575D01*
X126128597Y-110721505D01*
X125961505Y-110888597D01*
X125825965Y-111082169D01*
X125825964Y-111082171D01*
X125726098Y-111296335D01*
X125726094Y-111296344D01*
X125664938Y-111524586D01*
X125664936Y-111524596D01*
X125644341Y-111759999D01*
X125644341Y-111760000D01*
X125664936Y-111995403D01*
X125664938Y-111995413D01*
X125726094Y-112223655D01*
X125726096Y-112223659D01*
X125726097Y-112223663D01*
X125825965Y-112437830D01*
X125825967Y-112437834D01*
X125961501Y-112631395D01*
X125961506Y-112631402D01*
X126128597Y-112798493D01*
X126128603Y-112798498D01*
X126314158Y-112928425D01*
X126357783Y-112983002D01*
X126364977Y-113052500D01*
X126333454Y-113114855D01*
X126314158Y-113131575D01*
X126128597Y-113261505D01*
X125961505Y-113428597D01*
X125825965Y-113622169D01*
X125825964Y-113622171D01*
X125726098Y-113836335D01*
X125726094Y-113836344D01*
X125664938Y-114064586D01*
X125664936Y-114064596D01*
X125644341Y-114299999D01*
X125644341Y-114300000D01*
X125664936Y-114535403D01*
X125664938Y-114535413D01*
X125726094Y-114763655D01*
X125726096Y-114763659D01*
X125726097Y-114763663D01*
X125825964Y-114977829D01*
X125825965Y-114977830D01*
X125825967Y-114977834D01*
X125961501Y-115171395D01*
X125961506Y-115171402D01*
X126128597Y-115338493D01*
X126128603Y-115338498D01*
X126314158Y-115468425D01*
X126357783Y-115523002D01*
X126364977Y-115592500D01*
X126333454Y-115654855D01*
X126314158Y-115671575D01*
X126128597Y-115801505D01*
X125961505Y-115968597D01*
X125825965Y-116162169D01*
X125825964Y-116162171D01*
X125726098Y-116376335D01*
X125726094Y-116376344D01*
X125664938Y-116604586D01*
X125664936Y-116604596D01*
X125644341Y-116839999D01*
X125644341Y-116840000D01*
X125664936Y-117075403D01*
X125664938Y-117075413D01*
X125726094Y-117303655D01*
X125726096Y-117303659D01*
X125726097Y-117303663D01*
X125825965Y-117517829D01*
X125825965Y-117517830D01*
X125825967Y-117517834D01*
X125961501Y-117711395D01*
X125961506Y-117711402D01*
X126128597Y-117878493D01*
X126128603Y-117878498D01*
X126314158Y-118008425D01*
X126357783Y-118063002D01*
X126364977Y-118132500D01*
X126333454Y-118194855D01*
X126314158Y-118211575D01*
X126128597Y-118341505D01*
X125961505Y-118508597D01*
X125825965Y-118702169D01*
X125825964Y-118702171D01*
X125726098Y-118916335D01*
X125726094Y-118916344D01*
X125664938Y-119144586D01*
X125664936Y-119144596D01*
X125644341Y-119379999D01*
X125644341Y-119380000D01*
X125664936Y-119615403D01*
X125664938Y-119615413D01*
X125726094Y-119843655D01*
X125726096Y-119843659D01*
X125726097Y-119843663D01*
X125770880Y-119939700D01*
X125825965Y-120057830D01*
X125825967Y-120057834D01*
X125961501Y-120251395D01*
X125961506Y-120251402D01*
X126128597Y-120418493D01*
X126128603Y-120418498D01*
X126314158Y-120548425D01*
X126357783Y-120603002D01*
X126364977Y-120672500D01*
X126333454Y-120734855D01*
X126314158Y-120751575D01*
X126128597Y-120881505D01*
X125961505Y-121048597D01*
X125825965Y-121242169D01*
X125825964Y-121242171D01*
X125726098Y-121456335D01*
X125726094Y-121456344D01*
X125664938Y-121684586D01*
X125664936Y-121684596D01*
X125644341Y-121919999D01*
X125644341Y-121920000D01*
X115733165Y-121920000D01*
X115712428Y-121826464D01*
X115688913Y-121720399D01*
X115643837Y-121505420D01*
X115643058Y-121500849D01*
X115616047Y-121295681D01*
X115588870Y-121077654D01*
X115588456Y-121072732D01*
X115579487Y-120867298D01*
X115570500Y-120650000D01*
X115570500Y-120649500D01*
X115570500Y-120396006D01*
X118228700Y-120396006D01*
X118247864Y-120627297D01*
X118247866Y-120627308D01*
X118304842Y-120852300D01*
X118398075Y-121064848D01*
X118525016Y-121259147D01*
X118525019Y-121259151D01*
X118525021Y-121259153D01*
X118682216Y-121429913D01*
X118682219Y-121429915D01*
X118682222Y-121429918D01*
X118865365Y-121572464D01*
X118865371Y-121572468D01*
X118865374Y-121572470D01*
X119069497Y-121682936D01*
X119183487Y-121722068D01*
X119289015Y-121758297D01*
X119289017Y-121758297D01*
X119289019Y-121758298D01*
X119517951Y-121796500D01*
X119517952Y-121796500D01*
X119750048Y-121796500D01*
X119750049Y-121796500D01*
X119978981Y-121758298D01*
X120198503Y-121682936D01*
X120402626Y-121572470D01*
X120585784Y-121429913D01*
X120594511Y-121420432D01*
X120654394Y-121384441D01*
X120724232Y-121386538D01*
X120781850Y-121426060D01*
X120801924Y-121461080D01*
X120830645Y-121538086D01*
X120830649Y-121538093D01*
X120916809Y-121653187D01*
X120916812Y-121653190D01*
X121031906Y-121739350D01*
X121031913Y-121739354D01*
X121166620Y-121789596D01*
X121166627Y-121789598D01*
X121226155Y-121795999D01*
X121226172Y-121796000D01*
X121924000Y-121796000D01*
X121924000Y-120770189D01*
X121976547Y-120806016D01*
X122106173Y-120846000D01*
X122207724Y-120846000D01*
X122308138Y-120830865D01*
X122424000Y-120775068D01*
X122424000Y-121796000D01*
X123121828Y-121796000D01*
X123121844Y-121795999D01*
X123181372Y-121789598D01*
X123181379Y-121789596D01*
X123316086Y-121739354D01*
X123316093Y-121739350D01*
X123431187Y-121653190D01*
X123431190Y-121653187D01*
X123517350Y-121538093D01*
X123517354Y-121538086D01*
X123567596Y-121403379D01*
X123567598Y-121403372D01*
X123573999Y-121343844D01*
X123574000Y-121343827D01*
X123574000Y-120646000D01*
X122549278Y-120646000D01*
X122597625Y-120562260D01*
X122627810Y-120430008D01*
X122617673Y-120294735D01*
X122568113Y-120168459D01*
X122550203Y-120146000D01*
X123573999Y-120146000D01*
X123574000Y-119448172D01*
X123573999Y-119448155D01*
X123567598Y-119388627D01*
X123567596Y-119388620D01*
X123517354Y-119253913D01*
X123517350Y-119253906D01*
X123431190Y-119138812D01*
X123431187Y-119138809D01*
X123316093Y-119052649D01*
X123316086Y-119052645D01*
X123181379Y-119002403D01*
X123181372Y-119002401D01*
X123121844Y-118996000D01*
X122424000Y-118996000D01*
X122424000Y-120021810D01*
X122371453Y-119985984D01*
X122241827Y-119946000D01*
X122140276Y-119946000D01*
X122039862Y-119961135D01*
X121923999Y-120016931D01*
X121924000Y-118996000D01*
X121226155Y-118996000D01*
X121166627Y-119002401D01*
X121166620Y-119002403D01*
X121031913Y-119052645D01*
X121031906Y-119052649D01*
X120916812Y-119138809D01*
X120916809Y-119138812D01*
X120830649Y-119253906D01*
X120830646Y-119253911D01*
X120801924Y-119330920D01*
X120760052Y-119386853D01*
X120694588Y-119411270D01*
X120626315Y-119396418D01*
X120594514Y-119371571D01*
X120585784Y-119362087D01*
X120585779Y-119362083D01*
X120585777Y-119362081D01*
X120402634Y-119219535D01*
X120402628Y-119219531D01*
X120198504Y-119109064D01*
X120198495Y-119109061D01*
X119978984Y-119033702D01*
X119791404Y-119002401D01*
X119750049Y-118995500D01*
X119517951Y-118995500D01*
X119476596Y-119002401D01*
X119289015Y-119033702D01*
X119069504Y-119109061D01*
X119069495Y-119109064D01*
X118865371Y-119219531D01*
X118865365Y-119219535D01*
X118682222Y-119362081D01*
X118682219Y-119362084D01*
X118682216Y-119362086D01*
X118682216Y-119362087D01*
X118657791Y-119388620D01*
X118525016Y-119532852D01*
X118398075Y-119727151D01*
X118304842Y-119939699D01*
X118247866Y-120164691D01*
X118247864Y-120164702D01*
X118228700Y-120395993D01*
X118228700Y-120396006D01*
X115570500Y-120396006D01*
X115570500Y-87630006D01*
X118228700Y-87630006D01*
X118247864Y-87861297D01*
X118247866Y-87861308D01*
X118304842Y-88086300D01*
X118398075Y-88298848D01*
X118525016Y-88493147D01*
X118525019Y-88493151D01*
X118525021Y-88493153D01*
X118682216Y-88663913D01*
X118682219Y-88663915D01*
X118682222Y-88663918D01*
X118865365Y-88806464D01*
X118865371Y-88806468D01*
X118865374Y-88806470D01*
X119069497Y-88916936D01*
X119183487Y-88956068D01*
X119289015Y-88992297D01*
X119289017Y-88992297D01*
X119289019Y-88992298D01*
X119517951Y-89030500D01*
X119517952Y-89030500D01*
X119750048Y-89030500D01*
X119750049Y-89030500D01*
X119978981Y-88992298D01*
X120198503Y-88916936D01*
X120402626Y-88806470D01*
X120585784Y-88663913D01*
X120594511Y-88654432D01*
X120654394Y-88618441D01*
X120724232Y-88620538D01*
X120781850Y-88660060D01*
X120801924Y-88695080D01*
X120830645Y-88772086D01*
X120830649Y-88772093D01*
X120916809Y-88887187D01*
X120916812Y-88887190D01*
X121031906Y-88973350D01*
X121031913Y-88973354D01*
X121166620Y-89023596D01*
X121166627Y-89023598D01*
X121226155Y-89029999D01*
X121226172Y-89030000D01*
X121924000Y-89030000D01*
X121924000Y-88004189D01*
X121976547Y-88040016D01*
X122106173Y-88080000D01*
X122207724Y-88080000D01*
X122308138Y-88064865D01*
X122424000Y-88009068D01*
X122424000Y-89030000D01*
X123121828Y-89030000D01*
X123121844Y-89029999D01*
X123181372Y-89023598D01*
X123181379Y-89023596D01*
X123316086Y-88973354D01*
X123316093Y-88973350D01*
X123431187Y-88887190D01*
X123431190Y-88887187D01*
X123517350Y-88772093D01*
X123517354Y-88772086D01*
X123567596Y-88637379D01*
X123567598Y-88637372D01*
X123573999Y-88577844D01*
X123574000Y-88577827D01*
X123574000Y-87880000D01*
X122549278Y-87880000D01*
X122597625Y-87796260D01*
X122627810Y-87664008D01*
X122617673Y-87528735D01*
X122568113Y-87402459D01*
X122550203Y-87380000D01*
X123573999Y-87380000D01*
X123574000Y-86682172D01*
X123573999Y-86682155D01*
X123567598Y-86622627D01*
X123567596Y-86622620D01*
X123517354Y-86487913D01*
X123517350Y-86487906D01*
X123431190Y-86372812D01*
X123431187Y-86372809D01*
X123316093Y-86286649D01*
X123316086Y-86286645D01*
X123181379Y-86236403D01*
X123181372Y-86236401D01*
X123121844Y-86230000D01*
X122424000Y-86230000D01*
X122424000Y-87255810D01*
X122371453Y-87219984D01*
X122241827Y-87180000D01*
X122140276Y-87180000D01*
X122039862Y-87195135D01*
X121923999Y-87250931D01*
X121924000Y-86230000D01*
X121226155Y-86230000D01*
X121166627Y-86236401D01*
X121166620Y-86236403D01*
X121031913Y-86286645D01*
X121031906Y-86286649D01*
X120916812Y-86372809D01*
X120916809Y-86372812D01*
X120830649Y-86487906D01*
X120830646Y-86487911D01*
X120801924Y-86564920D01*
X120760052Y-86620853D01*
X120694588Y-86645270D01*
X120626315Y-86630418D01*
X120594514Y-86605571D01*
X120585784Y-86596087D01*
X120585779Y-86596083D01*
X120585777Y-86596081D01*
X120402634Y-86453535D01*
X120402628Y-86453531D01*
X120198504Y-86343064D01*
X120198495Y-86343061D01*
X119978984Y-86267702D01*
X119791404Y-86236401D01*
X119750049Y-86229500D01*
X119517951Y-86229500D01*
X119476596Y-86236401D01*
X119289015Y-86267702D01*
X119069504Y-86343061D01*
X119069495Y-86343064D01*
X118865371Y-86453531D01*
X118865365Y-86453535D01*
X118682222Y-86596081D01*
X118682219Y-86596084D01*
X118682216Y-86596086D01*
X118682216Y-86596087D01*
X118657791Y-86622620D01*
X118525016Y-86766852D01*
X118398075Y-86961151D01*
X118304842Y-87173699D01*
X118247866Y-87398691D01*
X118247864Y-87398702D01*
X118228700Y-87629993D01*
X118228700Y-87630006D01*
X115570500Y-87630006D01*
X115570500Y-87629999D01*
X115579489Y-87412657D01*
X115588457Y-87207263D01*
X115588869Y-87202349D01*
X115616056Y-86984247D01*
X115643059Y-86779141D01*
X115643835Y-86774588D01*
X115688904Y-86559646D01*
X115733768Y-86357278D01*
X115734865Y-86353044D01*
X115797533Y-86142549D01*
X115802784Y-86125892D01*
X115859945Y-85944602D01*
X115861270Y-85940838D01*
X115941169Y-85736075D01*
X116020640Y-85544216D01*
X116022185Y-85540789D01*
X116118759Y-85343243D01*
X116214712Y-85158921D01*
X116216428Y-85155842D01*
X116329020Y-84966889D01*
X116440794Y-84791441D01*
X116442555Y-84788831D01*
X116570462Y-84609686D01*
X116697169Y-84444559D01*
X116698999Y-84442289D01*
X116841331Y-84274237D01*
X116982951Y-84119686D01*
X117139686Y-83962951D01*
X117294247Y-83821323D01*
X117462289Y-83678999D01*
X117464559Y-83677169D01*
X117629670Y-83550473D01*
X117808831Y-83422555D01*
X117811441Y-83420794D01*
X117986889Y-83309020D01*
X118175842Y-83196428D01*
X118178921Y-83194712D01*
X118363243Y-83098759D01*
X118560789Y-83002185D01*
X118564216Y-83000640D01*
X118756059Y-82921175D01*
X118960838Y-82841270D01*
X118964602Y-82839945D01*
X119145892Y-82782784D01*
X119162550Y-82777533D01*
X119188593Y-82769779D01*
X119373044Y-82714865D01*
X119377278Y-82713768D01*
X119579646Y-82668904D01*
X119794588Y-82623835D01*
X119799141Y-82623059D01*
X120004278Y-82596052D01*
X120222349Y-82568869D01*
X120227263Y-82568457D01*
X120432364Y-82559501D01*
X120650000Y-82550500D01*
X120650500Y-82550500D01*
X148589500Y-82550500D01*
X148590000Y-82550500D01*
X148807525Y-82559496D01*
G37*
%TD.AperFunction*%
%TD*%
M02*
