%TF.GenerationSoftware,KiCad,Pcbnew,7.0.6*%
%TF.CreationDate,2024-03-18T09:35:31+01:00*%
%TF.ProjectId,PymonPCB,50796d6f-6e50-4434-922e-6b696361645f,rev?*%
%TF.SameCoordinates,Original*%
%TF.FileFunction,Soldermask,Bot*%
%TF.FilePolarity,Negative*%
%FSLAX46Y46*%
G04 Gerber Fmt 4.6, Leading zero omitted, Abs format (unit mm)*
G04 Created by KiCad (PCBNEW 7.0.6) date 2024-03-18 09:35:31*
%MOMM*%
%LPD*%
G01*
G04 APERTURE LIST*
G04 Aperture macros list*
%AMRoundRect*
0 Rectangle with rounded corners*
0 $1 Rounding radius*
0 $2 $3 $4 $5 $6 $7 $8 $9 X,Y pos of 4 corners*
0 Add a 4 corners polygon primitive as box body*
4,1,4,$2,$3,$4,$5,$6,$7,$8,$9,$2,$3,0*
0 Add four circle primitives for the rounded corners*
1,1,$1+$1,$2,$3*
1,1,$1+$1,$4,$5*
1,1,$1+$1,$6,$7*
1,1,$1+$1,$8,$9*
0 Add four rect primitives between the rounded corners*
20,1,$1+$1,$2,$3,$4,$5,0*
20,1,$1+$1,$4,$5,$6,$7,0*
20,1,$1+$1,$6,$7,$8,$9,0*
20,1,$1+$1,$8,$9,$2,$3,0*%
G04 Aperture macros list end*
%ADD10R,1.700000X1.700000*%
%ADD11O,1.700000X1.700000*%
%ADD12R,1.800000X1.800000*%
%ADD13C,1.800000*%
%ADD14RoundRect,0.200000X-0.275000X0.200000X-0.275000X-0.200000X0.275000X-0.200000X0.275000X0.200000X0*%
%ADD15RoundRect,0.200000X0.275000X-0.200000X0.275000X0.200000X-0.275000X0.200000X-0.275000X-0.200000X0*%
%ADD16R,1.600000X1.600000*%
%ADD17C,1.600000*%
G04 APERTURE END LIST*
D10*
%TO.C,J2*%
X142240000Y-86360000D03*
D11*
X142240000Y-88900000D03*
X142240000Y-91440000D03*
X142240000Y-93980000D03*
X142240000Y-96520000D03*
X142240000Y-99060000D03*
X142240000Y-101600000D03*
X142240000Y-104140000D03*
X142240000Y-106680000D03*
X142240000Y-109220000D03*
X142240000Y-111760000D03*
X142240000Y-114300000D03*
X142240000Y-116840000D03*
X142240000Y-119380000D03*
X142240000Y-121920000D03*
%TD*%
D10*
%TO.C,J1*%
X127000000Y-86360000D03*
D11*
X127000000Y-88900000D03*
X127000000Y-91440000D03*
X127000000Y-93980000D03*
X127000000Y-96520000D03*
X127000000Y-99060000D03*
X127000000Y-101600000D03*
X127000000Y-104140000D03*
X127000000Y-106680000D03*
X127000000Y-109220000D03*
X127000000Y-111760000D03*
X127000000Y-114300000D03*
X127000000Y-116840000D03*
X127000000Y-119380000D03*
X127000000Y-121920000D03*
%TD*%
D12*
%TO.C,D3*%
X147061000Y-120650000D03*
D13*
X149601000Y-120650000D03*
%TD*%
D14*
%TO.C,R4*%
X123190000Y-114300000D03*
X123190000Y-115950000D03*
%TD*%
D15*
%TO.C,R2*%
X123127000Y-93535000D03*
X123127000Y-91885000D03*
%TD*%
D12*
%TO.C,D4*%
X122174000Y-120396000D03*
D13*
X119634000Y-120396000D03*
%TD*%
D16*
%TO.C,BZ1*%
X137870000Y-102616000D03*
D17*
X131370000Y-102616000D03*
%TD*%
D12*
%TO.C,D2*%
X122174000Y-87630000D03*
D13*
X119634000Y-87630000D03*
%TD*%
D15*
%TO.C,R1*%
X146050000Y-93535000D03*
X146050000Y-91885000D03*
%TD*%
D14*
%TO.C,R3*%
X146050000Y-114745000D03*
X146050000Y-116395000D03*
%TD*%
D12*
%TO.C,D1*%
X147061000Y-87630000D03*
D13*
X149601000Y-87630000D03*
%TD*%
M02*
