%TF.GenerationSoftware,KiCad,Pcbnew,7.0.6*%
%TF.CreationDate,2024-03-18T09:35:31+01:00*%
%TF.ProjectId,PymonPCB,50796d6f-6e50-4434-922e-6b696361645f,rev?*%
%TF.SameCoordinates,Original*%
%TF.FileFunction,Soldermask,Top*%
%TF.FilePolarity,Negative*%
%FSLAX46Y46*%
G04 Gerber Fmt 4.6, Leading zero omitted, Abs format (unit mm)*
G04 Created by KiCad (PCBNEW 7.0.6) date 2024-03-18 09:35:31*
%MOMM*%
%LPD*%
G01*
G04 APERTURE LIST*
%ADD10R,1.700000X1.700000*%
%ADD11O,1.700000X1.700000*%
%ADD12R,1.800000X1.800000*%
%ADD13C,1.800000*%
%ADD14R,1.600000X1.600000*%
%ADD15C,1.600000*%
G04 APERTURE END LIST*
D10*
%TO.C,J2*%
X142240000Y-86360000D03*
D11*
X142240000Y-88900000D03*
X142240000Y-91440000D03*
X142240000Y-93980000D03*
X142240000Y-96520000D03*
X142240000Y-99060000D03*
X142240000Y-101600000D03*
X142240000Y-104140000D03*
X142240000Y-106680000D03*
X142240000Y-109220000D03*
X142240000Y-111760000D03*
X142240000Y-114300000D03*
X142240000Y-116840000D03*
X142240000Y-119380000D03*
X142240000Y-121920000D03*
%TD*%
D10*
%TO.C,J1*%
X127000000Y-86360000D03*
D11*
X127000000Y-88900000D03*
X127000000Y-91440000D03*
X127000000Y-93980000D03*
X127000000Y-96520000D03*
X127000000Y-99060000D03*
X127000000Y-101600000D03*
X127000000Y-104140000D03*
X127000000Y-106680000D03*
X127000000Y-109220000D03*
X127000000Y-111760000D03*
X127000000Y-114300000D03*
X127000000Y-116840000D03*
X127000000Y-119380000D03*
X127000000Y-121920000D03*
%TD*%
D12*
%TO.C,D3*%
X147061000Y-120650000D03*
D13*
X149601000Y-120650000D03*
%TD*%
D12*
%TO.C,D4*%
X122174000Y-120396000D03*
D13*
X119634000Y-120396000D03*
%TD*%
D14*
%TO.C,BZ1*%
X137870000Y-102616000D03*
D15*
X131370000Y-102616000D03*
%TD*%
D12*
%TO.C,D2*%
X122174000Y-87630000D03*
D13*
X119634000Y-87630000D03*
%TD*%
D12*
%TO.C,D1*%
X147061000Y-87630000D03*
D13*
X149601000Y-87630000D03*
%TD*%
M02*
